<svg height="480pt" viewBox="0 0 480 480" width="480pt" xmlns="http://www.w3.org/2000/svg"><path d="m240 0c-132.546875 0-240 107.453125-240 240s107.453125 240 240 240 240-107.453125 240-240c-.148438-132.484375-107.515625-239.851562-240-240zm0 464c-123.710938 0-224-100.289062-224-224s100.289062-224 224-224 224 100.289062 224 224c-.140625 123.652344-100.347656 223.859375-224 224zm0 0"/><path d="m240 112c-50.898438-.121094-97.03125 29.921875-117.5 76.523438-20.46875 46.597656-11.386719 100.898437 23.136719 138.296874 34.523437 37.398438 87.925781 50.792969 136.011719 34.109376l77.597656 7.039062h.722656c2.25.007812 4.402344-.933594 5.925781-2.59375 1.523438-1.660156 2.277344-3.882812 2.074219-6.128906l-7.039062-77.445313c4.6875-13.4375 7.078124-27.570312 7.070312-41.800781-.082031-70.65625-57.34375-127.917969-128-128zm111.199219 239.199219-69.839844-6.398438c-1.15625-.105469-2.320313.046875-3.414063.4375-45.945312 16.523438-97.292968 1.363281-126.894531-37.460937-29.601562-38.828125-30.625-92.359375-2.53125-132.285156 28.097657-39.929688 78.832031-57.039063 125.371094-42.285157 46.542969 14.753907 78.148437 57.96875 78.109375 106.792969.011719 12.980469-2.261719 25.863281-6.710938 38.054688-.40625 1.109374-.5625 2.292968-.457031 3.464843zm0 0"/><path d="m240 216c-13.253906 0-24 10.746094-24 24s10.746094 24 24 24 24-10.746094 24-24-10.746094-24-24-24zm0 32c-4.417969 0-8-3.582031-8-8s3.582031-8 8-8 8 3.582031 8 8-3.582031 8-8 8zm0 0"/><path d="m176 216c-13.253906 0-24 10.746094-24 24s10.746094 24 24 24 24-10.746094 24-24-10.746094-24-24-24zm0 32c-4.417969 0-8-3.582031-8-8s3.582031-8 8-8 8 3.582031 8 8-3.582031 8-8 8zm0 0"/><path d="m304 216c-13.253906 0-24 10.746094-24 24s10.746094 24 24 24 24-10.746094 24-24-10.746094-24-24-24zm0 32c-4.417969 0-8-3.582031-8-8s3.582031-8 8-8 8 3.582031 8 8-3.582031 8-8 8zm0 0"/></svg>